# ###############################
# Obj file written by RoadKill1_1
# RoadKill by Andy Swann
# http://www.pullin-shapes.co.uk/
# ###############################
g RoadKillOut
o RoadKillOut
# 88 Vertex coords
v 0.500000 -9.716262 6.569837
v -0.500000 -9.716262 6.569837
v 0.500000 -9.168000 6.569837
v -0.500000 -9.168000 6.569837
v 0.500000 -9.117422 4.803769
v 0.500000 -9.742290 4.821047
v -0.500000 -9.742290 4.840525
v -0.500000 -9.117422 4.874084
v -0.500000 -9.740751 4.269257
v -0.500000 -9.089906 4.258805
v 0.500000 -9.089906 4.264081
v 0.500000 -9.740751 4.250472
v 4.681808 -8.957457 4.324728
v 4.663019 -9.741912 4.319449
v 4.716843 -8.956162 4.669443
v 4.698054 -9.742805 4.684833
v -4.685150 -9.702912 4.704873
v -4.698576 -9.708078 4.345459
v -4.654703 -8.999950 4.750519
v -4.668129 -8.996017 4.348863
v -3.499392 -9.740988 4.323694
v -3.543164 -8.940169 4.319742
v -3.002932 -9.754613 4.314684
v -3.001204 -8.918213 4.308294
v -3.235086 -9.758233 3.244430
v -3.233358 -8.921832 3.238040
v -3.360072 -9.762593 2.480781
v -3.358344 -8.926193 2.474391
v -3.409039 -9.766858 1.884870
v -3.407310 -8.930457 1.878479
v -3.406395 -9.770373 1.393301
v -3.404667 -8.933973 1.386911
v -3.072962 -9.771681 0.961526
v -3.071234 -8.935280 0.955136
v -2.769556 -9.773272 0.780845
v -2.767828 -8.936872 0.774455
v -2.227184 -9.775365 0.576283
v -2.225456 -8.938965 0.569892
v -1.711979 -9.777354 0.438093
v -1.710251 -8.940954 0.431703
v -1.206593 -9.779305 0.322442
v -1.204865 -8.942905 0.316051
v -3.758027 -9.744307 3.176104
v -3.785484 -8.938411 3.248449
v -3.865736 -9.753190 2.485310
v -3.880329 -8.952372 2.481358
v -3.908852 -9.758156 1.894037
v -3.923444 -8.957337 1.890084
v -3.829289 -9.756248 1.192068
v -3.843881 -8.955429 1.188115
v -3.391098 -9.739272 0.665784
v -3.405690 -8.938452 0.661831
v -2.849175 -9.714220 0.354559
v -2.863767 -8.913401 0.350606
v -2.376291 -9.699065 0.167169
v -2.390883 -8.898245 0.163217
v -1.845763 -9.681922 -0.027171
v -1.860355 -8.881103 -0.031123
v -1.349321 -9.677505 -0.108211
v -1.363913 -8.876686 -0.112164
v 0.500000 -9.716262 9.967714
v 0.500000 -9.234345 9.963340
v -0.500000 -9.234345 9.982619
v -0.500000 -9.716262 9.986994
v 0.025076 -9.208331 31.084980
v 0.024905 -9.690249 31.027004
v 0.447378 -9.208772 31.042267
v 0.468545 -9.690689 30.984295
v 0.344171 -9.248473 32.211296
v 0.344000 -9.730390 32.153320
v 0.465289 -9.754754 32.088169
v 0.444122 -9.272837 32.146145
v -3.483564 -9.737478 4.743819
v -3.483217 -8.943530 4.789986
v -2.970855 -8.926502 4.801897
v -3.010532 -9.751085 4.759151
v 0.500000 -9.089906 0.402308
v -0.500000 -9.089906 0.356995
v -0.500000 -9.823306 0.329876
v 0.500000 -9.823306 0.361093
v 1.330084 -10.728246 -1.109153
v 1.334347 -8.088985 -1.073939
v -1.214248 -10.742473 -1.017288
v -1.159204 -8.103210 -0.933612
v -1.198296 -8.942190 -2.566990
v -1.253340 -9.855453 -2.650666
v 1.295254 -8.927965 -2.707318
v 1.290991 -9.841227 -2.742530

# 344 Normal vectors
vn 0.005896 -0.939082 0.343642
vn 0.005722 -0.942748 0.333458
vn 0.005798 -0.999983 -0.000502
vn -0.006206 -0.999981 0.000720
vn -0.913713 -0.006522 0.406309
vn -0.905686 -0.006804 0.423895
vn -1.000000 0.000000 0.000000
vn -1.000000 0.000000 0.000000
vn -0.009307 0.999955 0.001999
vn 0.009297 0.999957 -0.000797
vn 0.003897 0.961949 0.273200
vn 0.004074 0.958325 0.285651
vn 1.000000 -0.000000 0.000000
vn 1.000000 -0.000000 0.000000
vn 0.909956 -0.009216 0.414603
vn 0.919626 -0.008729 0.392699
vn 1.000000 0.000000 0.000000
vn 1.000000 0.000000 0.000000
vn 1.000000 0.000000 0.000000
vn 1.000000 0.000000 0.000000
vn -0.009821 -0.999951 0.001139
vn 0.008804 -0.999961 -0.000763
vn 0.000000 -1.000000 0.000000
vn 0.000000 -1.000000 0.000000
vn -1.000000 0.000000 0.000000
vn -1.000000 0.000000 0.000000
vn -1.000000 0.000000 0.000000
vn -1.000000 0.000000 0.000000
vn 0.000000 1.000000 0.000000
vn 0.000000 1.000000 0.000000
vn 0.014180 0.999899 -0.001215
vn -0.014529 0.999890 0.003121
vn -0.014529 0.999890 0.003121
vn 0.014180 0.999899 -0.001215
vn 0.009297 0.999957 -0.000797
vn -0.009307 0.999955 0.001999
vn -0.006206 -0.999981 0.000720
vn 0.005798 -0.999983 -0.000502
vn 0.008804 -0.999961 -0.000763
vn -0.009821 -0.999951 0.001139
vn 0.015597 0.010418 -0.999824
vn 0.015597 0.010418 -0.999824
vn 0.015597 0.010418 -0.999824
vn 0.015597 0.010418 -0.999824
vn 0.032240 0.017934 0.999319
vn 0.032240 0.017934 0.999319
vn 0.032240 0.017934 0.999319
vn 0.032240 0.017934 0.999319
vn 0.008804 -0.999961 -0.000763
vn 0.005798 -0.999983 -0.000502
vn 0.019345 -0.999811 -0.001676
vn 0.019345 -0.999812 -0.001676
vn 0.009297 0.999957 -0.000797
vn 0.014180 0.999899 -0.001215
vn 0.031752 0.999492 -0.002721
vn 0.031752 0.999492 -0.002721
vn 0.994871 -0.024427 -0.098158
vn 0.994871 -0.024427 -0.098158
vn 0.994871 -0.024427 -0.098158
vn 0.994871 -0.024427 -0.098158
vn -0.028166 -0.999542 0.011033
vn -0.028165 -0.999543 0.010941
vn -0.028180 -0.999529 0.012183
vn -0.028180 -0.999529 0.012183
vn -0.030823 -0.058505 0.997811
vn -0.030800 -0.058476 0.997814
vn -0.032408 -0.060524 0.997641
vn -0.032408 -0.060524 0.997641
vn -0.018915 -0.009151 -0.999779
vn -0.018915 -0.009151 -0.999779
vn -0.018915 -0.009151 -0.999779
vn -0.018915 -0.009151 -0.999779
vn -0.044627 0.998930 0.012107
vn -0.045020 0.998914 0.011966
vn -0.048264 0.998776 0.010801
vn -0.048264 0.998776 0.010801
vn -0.998509 0.041751 0.035163
vn -0.998509 0.041751 0.035163
vn -0.998509 0.041751 0.035163
vn -0.998509 0.041751 0.035163
vn -0.021617 -0.000136 -0.999766
vn -0.021617 -0.000136 -0.999766
vn -0.021617 -0.000136 -0.999766
vn -0.021617 -0.000136 -0.999766
vn 0.977269 -0.003639 -0.211971
vn 0.977269 -0.003639 -0.211971
vn 0.981549 -0.003489 -0.191178
vn 0.981565 -0.003488 -0.191095
vn 0.981565 -0.003488 -0.191095
vn 0.981549 -0.003489 -0.191178
vn 0.991909 -0.003019 -0.126917
vn 0.991915 -0.003019 -0.126870
vn 0.991915 -0.003019 -0.126870
vn 0.991909 -0.003019 -0.126917
vn 0.999091 -0.002389 -0.042552
vn 0.999092 -0.002389 -0.042530
vn 0.999092 -0.002389 -0.042530
vn 0.999091 -0.002389 -0.042552
vn 0.999983 -0.002025 0.005391
vn 0.999983 -0.002025 0.005391
vn 0.791473 0.003034 0.611197
vn 0.791473 0.003034 0.611197
vn 0.693431 0.004072 0.720512
vn 0.692924 0.004077 0.720999
vn 0.692924 0.004077 0.720999
vn 0.693431 0.004072 0.720512
vn 0.414583 0.006096 0.909991
vn 0.414477 0.006096 0.910039
vn 0.414477 0.006096 0.910039
vn 0.414583 0.006096 0.909991
vn 0.308340 0.006631 0.951253
vn 0.308302 0.006631 0.951265
vn 0.308302 0.006631 0.951265
vn 0.308340 0.006631 0.951253
vn 0.241387 0.006915 0.970404
vn 0.241384 0.006915 0.970405
vn 0.241384 0.006915 0.970405
vn 0.241387 0.006915 0.970404
vn 0.223092 0.006986 0.974772
vn 0.223092 0.006986 0.974772
vn -0.971694 -0.027724 0.234613
vn -0.971694 -0.027724 0.234613
vn -0.979562 -0.026364 0.199409
vn -0.981078 -0.026069 0.191849
vn -0.981078 -0.026069 0.191849
vn -0.979562 -0.026364 0.199409
vn -0.993935 -0.021251 0.107901
vn -0.994318 -0.020906 0.104378
vn -0.999433 -0.018351 -0.028225
vn -0.999439 -0.018350 -0.028023
vn -0.994318 -0.020906 0.104378
vn -0.993935 -0.021251 0.107901
vn -0.999439 -0.018350 -0.028023
vn -0.999433 -0.018351 -0.028225
vn -0.920380 -0.018698 -0.390577
vn -0.922044 -0.018709 -0.386632
vn -0.922044 -0.018709 -0.386632
vn -0.920380 -0.018698 -0.390577
vn -0.647279 -0.015556 -0.762095
vn -0.651063 -0.015609 -0.758863
vn -0.651063 -0.015609 -0.758863
vn -0.647279 -0.015556 -0.762095
vn -0.439705 -0.012445 -0.898056
vn -0.441390 -0.012471 -0.897229
vn -0.441390 -0.012471 -0.897229
vn -0.439705 -0.012445 -0.898056
vn -0.355122 -0.011084 -0.934754
vn -0.355352 -0.011088 -0.934667
vn -0.355352 -0.011088 -0.934667
vn -0.355122 -0.011084 -0.934754
vn -0.258611 -0.009480 -0.965935
vn -0.258989 -0.009486 -0.965834
vn -0.258989 -0.009486 -0.965834
vn -0.258611 -0.009480 -0.965935
vn -0.161037 -0.007805 -0.986917
vn -0.161037 -0.007805 -0.986917
vn 0.943768 0.005327 -0.330565
vn 0.943768 0.005327 -0.330565
vn 0.943768 0.005327 -0.330565
vn 0.943768 0.005327 -0.330565
vn -0.089651 -0.993627 0.068326
vn -0.098272 -0.992296 0.075436
vn -0.151111 -0.988244 0.023210
vn -0.151554 -0.987223 0.049210
vn 0.023488 0.990964 0.132059
vn 0.023488 0.990964 0.132059
vn 0.023488 0.990964 0.132059
vn 0.023488 0.990964 0.132059
vn 0.019863 0.993979 0.107760
vn 0.019863 0.993979 0.107760
vn 0.019863 0.993979 0.107760
vn 0.019863 0.993979 0.107760
vn 0.015093 0.997267 0.072329
vn 0.015093 0.997267 0.072329
vn 0.015093 0.997267 0.072329
vn 0.015093 0.997267 0.072329
vn -0.008356 0.999410 0.033305
vn -0.008356 0.999410 0.033305
vn -0.008356 0.999410 0.033305
vn -0.008356 0.999410 0.033305
vn -0.027915 0.999592 -0.006135
vn -0.038752 0.999234 -0.005449
vn -0.039464 0.999206 -0.005404
vn -0.027915 0.999592 -0.006135
vn 1.000000 0.000000 0.000000
vn 1.000000 0.000000 0.000000
vn 0.999967 0.007638 0.002699
vn 0.999967 0.007655 0.002705
vn -1.000000 0.000000 0.000000
vn -1.000000 0.000000 0.000000
vn -0.999741 -0.000547 0.022741
vn -0.999742 -0.000546 0.022690
vn 0.000000 -1.000000 0.000000
vn 0.000000 -1.000000 0.000000
vn -0.000125 -0.999999 0.001557
vn -0.000126 -0.999999 0.001573
vn 0.000000 1.000000 0.000000
vn 0.000000 1.000000 0.000000
vn 0.000128 0.999999 -0.001561
vn 0.000127 0.999999 -0.001545
vn -0.999742 -0.000546 0.022690
vn -0.999741 -0.000547 0.022741
vn -0.997808 -0.002855 0.066121
vn -0.997575 -0.003061 0.069534
vn 0.000127 0.999999 -0.001545
vn 0.000128 0.999999 -0.001561
vn 0.000187 0.999997 -0.002281
vn 0.000187 0.999997 -0.002281
vn 0.999967 0.007655 0.002705
vn 0.999967 0.007638 0.002699
vn 0.999927 0.011451 0.003747
vn 0.999928 0.011386 0.003744
vn -0.000126 -0.999999 0.001573
vn -0.000125 -0.999999 0.001557
vn -0.000184 -0.999997 0.002294
vn -0.000184 -0.999997 0.002294
vn -0.997575 -0.003061 0.069534
vn -0.997808 -0.002855 0.066121
vn -0.916472 -0.023001 0.399437
vn -0.916472 -0.023001 0.399437
vn 0.999928 0.011386 0.003744
vn 0.999927 0.011451 0.003747
vn 0.999772 0.020921 0.004163
vn 0.999773 0.020921 0.004163
vn 0.499608 -0.044908 0.865087
vn 0.499608 -0.044908 0.865087
vn 0.499608 -0.044908 0.865087
vn 0.499608 -0.044908 0.865087
vn 0.041460 0.998434 0.037568
vn 0.041460 0.998434 0.037568
vn 0.041460 0.998434 0.037568
vn 0.041460 0.998434 0.037568
vn -0.039138 -0.998508 -0.038081
vn -0.039138 -0.998508 -0.038081
vn -0.039138 -0.998508 -0.038081
vn -0.039138 -0.998508 -0.038081
vn -0.151554 -0.987223 0.049210
vn -0.151111 -0.988244 0.023210
vn -0.150125 -0.988445 -0.020973
vn -0.150125 -0.988445 -0.020973
vn -0.033995 -0.997121 -0.067781
vn -0.034063 -0.996813 -0.072139
vn -0.028827 -0.999377 -0.020385
vn -0.029235 -0.999323 -0.022350
vn -0.039464 0.999206 -0.005404
vn -0.038752 0.999234 -0.005449
vn -0.050401 0.998720 -0.004251
vn -0.050387 0.998721 -0.004260
vn -0.050387 0.998721 -0.004260
vn -0.050401 0.998720 -0.004251
vn 0.017513 0.998132 -0.058539
vn 0.025204 0.997589 -0.064653
vn 0.025204 0.997589 -0.064653
vn 0.017513 0.998132 -0.058539
vn 0.078745 0.996477 -0.028877
vn 0.079486 0.996732 -0.014388
vn 0.079486 0.996732 -0.014388
vn 0.078745 0.996477 -0.028877
vn 0.082031 0.995899 0.038165
vn 0.082031 0.995899 0.038165
vn -0.021065 -0.999767 0.004687
vn -0.021112 -0.999766 0.004622
vn -0.098272 -0.992296 0.075436
vn -0.089651 -0.993627 0.068326
vn -0.029235 -0.999323 -0.022350
vn -0.028827 -0.999377 -0.020385
vn -0.021112 -0.999766 0.004622
vn -0.021065 -0.999767 0.004687
vn -0.040739 -0.990332 -0.132598
vn -0.039105 -0.991290 -0.125754
vn -0.034063 -0.996813 -0.072139
vn -0.033995 -0.997121 -0.067781
vn -0.043533 -0.985434 -0.164394
vn -0.043524 -0.985406 -0.164565
vn -0.039105 -0.991290 -0.125754
vn -0.040739 -0.990332 -0.132598
vn -0.040276 -0.980760 -0.191020
vn -0.040183 -0.980677 -0.191462
vn -0.043524 -0.985406 -0.164565
vn -0.043533 -0.985434 -0.164394
vn -0.037597 -0.978298 -0.203765
vn -0.040183 -0.980677 -0.191462
vn -0.040276 -0.980760 -0.191020
vn -0.037597 -0.978298 -0.203765
vn -0.028132 -0.999569 0.008404
vn -0.028132 -0.999569 0.008404
vn -0.028165 -0.999543 0.010941
vn -0.028166 -0.999542 0.011033
vn -0.030531 -0.041101 0.998688
vn -0.030531 -0.041101 0.998688
vn -0.030107 -0.042875 0.998627
vn -0.030054 -0.043096 0.998619
vn -0.014529 0.999890 0.003121
vn -0.009307 0.999955 0.001999
vn -0.039557 0.999172 0.009499
vn -0.039594 0.999172 0.009379
vn -0.039594 0.999172 0.009379
vn -0.039557 0.999172 0.009499
vn -0.045020 0.998914 0.011966
vn -0.044627 0.998930 0.012107
vn -0.030054 -0.043096 0.998619
vn -0.030107 -0.042875 0.998627
vn -0.030800 -0.058476 0.997814
vn -0.030823 -0.058505 0.997811
vn -0.006206 -0.999981 0.000720
vn -0.009821 -0.999951 0.001139
vn -0.028119 -0.999599 0.003262
vn -0.028119 -0.999599 0.003262
vn 0.919626 -0.008729 0.392699
vn 0.909956 -0.009216 0.414603
vn 0.723034 -0.015351 0.690642
vn 0.723034 -0.015351 0.690642
vn 0.005722 -0.942748 0.333458
vn 0.005896 -0.939082 0.343642
vn 0.009324 -0.839400 0.543434
vn 0.009324 -0.839400 0.543434
vn -0.905686 -0.006804 0.423895
vn -0.913713 -0.006522 0.406309
vn -0.689289 -0.011628 0.724393
vn -0.689289 -0.011628 0.724393
vn 0.004074 0.958325 0.285651
vn 0.003897 0.961949 0.273200
vn 0.006638 0.885089 0.465375
vn 0.006638 0.885089 0.465374
vn -0.030697 0.022852 -0.999268
vn -0.030697 0.022852 -0.999268
vn -0.030697 0.022852 -0.999268
vn -0.030697 0.022852 -0.999268
vn -0.999259 0.029818 0.024354
vn -0.999259 0.029818 0.024354
vn -0.030697 0.022852 -0.999268
vn -0.030697 0.022852 -0.999268
vn -0.030741 0.889397 -0.456100
vn -0.030741 0.889397 -0.456100
vn -0.030697 0.022852 -0.999268
vn -0.030697 0.022852 -0.999268
vn 0.999711 -0.001924 -0.023955
vn 0.999711 -0.001924 -0.023955
vn -0.030697 0.022852 -0.999268
vn -0.030697 0.022852 -0.999268
vn -0.012307 -0.878836 -0.476965
vn -0.012307 -0.878836 -0.476965
vn -0.030697 0.022852 -0.999268
vn -0.030697 0.022852 -0.999268

# 232 texture coords
vt 0.339952 0.693163 0.00
vt 0.338777 0.730831 0.00
vt 0.192239 0.730831 0.00
vt 0.191532 0.693164 0.00
vt 0.210595 0.853692 0.00
vt 0.211616 0.881317 0.00
vt 0.063228 0.878207 0.00
vt 0.063622 0.853691 0.00
vt 0.337641 0.657723 0.00
vt 0.337532 0.620055 0.00
vt 0.482996 0.620399 0.00
vt 0.484614 0.658070 0.00
vt 0.338102 0.595540 0.00
vt 0.484614 0.592777 0.00
vt 0.341437 0.696049 0.00
vt 0.407254 0.693163 0.00
vt 0.408586 0.716672 0.00
vt 0.342034 0.716692 0.00
vt 0.614053 0.853692 0.00
vt 0.614786 0.891359 0.00
vt 0.548906 0.891359 0.00
vt 0.548906 0.853691 0.00
vt 0.405950 0.754341 0.00
vt 0.406519 0.777905 0.00
vt 0.341437 0.775003 0.00
vt 0.342046 0.754360 0.00
vt 0.476537 0.397162 0.00
vt 0.472057 0.434368 0.00
vt 0.451881 0.433364 0.00
vt 0.453542 0.396018 0.00
vt 0.682115 0.854110 0.00
vt 0.682089 0.891785 0.00
vt 0.660601 0.891366 0.00
vt 0.660601 0.853691 0.00
vt 0.438805 0.585495 0.00
vt 0.410456 0.581459 0.00
vt 0.428290 0.430574 0.00
vt 0.914588 0.693182 0.00
vt 0.938134 0.693163 0.00
vt 0.938140 0.851378 0.00
vt 0.908504 0.852102 0.00
vt 0.269749 0.853903 0.00
vt 0.289434 0.853691 0.00
vt 0.288595 0.997344 0.00
vt 0.269749 0.998536 0.00
vt 0.458863 0.587871 0.00
vt 0.738950 0.853691 0.00
vt 0.738757 0.883249 0.00
vt 0.725706 0.883331 0.00
vt 0.725124 0.853691 0.00
vt 0.038102 0.739618 0.00
vt 0.022401 0.737557 0.00
vt 0.031415 0.693163 0.00
vt 0.044847 0.694933 0.00
vt 0.908192 0.738467 0.00
vt 0.878246 0.737677 0.00
vt 0.881636 0.693604 0.00
vt 0.908192 0.693163 0.00
vt 0.429208 0.396063 0.00
vt 0.428490 0.302481 0.00
vt 0.459758 0.302483 0.00
vt 0.478617 0.285330 0.00
vt 0.461164 0.282250 0.00
vt 0.464288 0.240245 0.00
vt 0.479263 0.241464 0.00
vt 0.752635 0.853972 0.00
vt 0.754227 0.880484 0.00
vt 0.739089 0.880538 0.00
vt 0.739089 0.853691 0.00
vt 0.657770 0.596512 0.00
vt 0.657864 0.626722 0.00
vt 0.612809 0.623162 0.00
vt 0.615329 0.596435 0.00
vt 0.428644 0.261542 0.00
vt 0.459913 0.261543 0.00
vt 0.428691 0.232614 0.00
vt 0.459959 0.232615 0.00
vt 0.428698 0.210261 0.00
vt 0.459967 0.210262 0.00
vt 0.428708 0.191884 0.00
vt 0.459976 0.191885 0.00
vt 0.428808 0.171491 0.00
vt 0.460077 0.171491 0.00
vt 0.428823 0.158289 0.00
vt 0.460092 0.158289 0.00
vt 0.428845 0.136619 0.00
vt 0.460114 0.136619 0.00
vt 0.428850 0.116677 0.00
vt 0.460119 0.116677 0.00
vt 0.428849 0.097295 0.00
vt 0.460118 0.097295 0.00
vt 0.699133 0.595621 0.00
vt 0.702168 0.625965 0.00
vt 0.728252 0.595707 0.00
vt 0.728505 0.625877 0.00
vt 0.750583 0.595567 0.00
vt 0.750837 0.625737 0.00
vt 0.777192 0.595196 0.00
vt 0.777445 0.625366 0.00
vt 0.802987 0.594543 0.00
vt 0.803241 0.624713 0.00
vt 0.826532 0.593716 0.00
vt 0.826785 0.623885 0.00
vt 0.845696 0.593273 0.00
vt 0.845949 0.623443 0.00
vt 0.866983 0.592777 0.00
vt 0.867236 0.622947 0.00
vt 0.885931 0.592777 0.00
vt 0.886185 0.622947 0.00
vt 0.843613 0.715908 0.00
vt 0.865416 0.693163 0.00
vt 0.875003 0.707821 0.00
vt 0.854215 0.729688 0.00
vt 0.108683 0.737608 0.00
vt 0.105664 0.756420 0.00
vt 0.076516 0.756244 0.00
vt 0.082348 0.737247 0.00
vt 0.829807 0.729721 0.00
vt 0.841660 0.743880 0.00
vt 0.815086 0.743397 0.00
vt 0.824792 0.756874 0.00
vt 0.797704 0.756612 0.00
vt 0.809316 0.768184 0.00
vt 0.785865 0.762676 0.00
vt 0.788504 0.779223 0.00
vt 0.762928 0.782648 0.00
vt 0.765410 0.764641 0.00
vt 0.547626 0.853691 0.00
vt 0.547626 0.874343 0.00
vt 0.419800 0.871844 0.00
vt 0.419635 0.853691 0.00
vt 0.418348 0.853691 0.00
vt 0.418348 0.874343 0.00
vt 0.289631 0.874343 0.00
vt 0.289796 0.856191 0.00
vt 0.537974 0.693163 0.00
vt 0.537974 0.730831 0.00
vt 0.409983 0.730831 0.00
vt 0.409257 0.693163 0.00
vt 0.667838 0.693163 0.00
vt 0.667838 0.730831 0.00
vt 0.539262 0.730831 0.00
vt 0.539988 0.693163 0.00
vt 0.813686 0.097504 0.00
vt 0.816374 0.140750 0.00
vt 0.485204 0.140750 0.00
vt 0.479951 0.097295 0.00
vt 0.403280 0.097295 0.00
vt 0.406392 0.150054 0.00
vt 0.002540 0.150054 0.00
vt 0.000000 0.097295 0.00
vt 0.331373 0.592777 0.00
vt 0.334190 0.636162 0.00
vt 0.001833 0.636161 0.00
vt 0.000000 0.592777 0.00
vt 0.712971 0.000000 0.00
vt 0.716385 0.053033 0.00
vt 0.310146 0.053004 0.00
vt 0.306375 0.000000 0.00
vt 0.660154 0.887651 0.00
vt 0.658489 0.905682 0.00
vt 0.615445 0.898157 0.00
vt 0.617110 0.880127 0.00
vt 0.660154 0.853691 0.00
vt 0.660120 0.871816 0.00
vt 0.618944 0.874288 0.00
vt 0.618978 0.856163 0.00
vt 0.754379 0.873178 0.00
vt 0.754379 0.854894 0.00
vt 0.759506 0.853691 0.00
vt 0.758806 0.871979 0.00
vt 0.682330 0.861403 0.00
vt 0.724700 0.853691 0.00
vt 0.724700 0.870078 0.00
vt 0.684681 0.867301 0.00
vt 0.035309 0.758118 0.00
vt 0.173300 0.766691 0.00
vt 0.160275 0.776672 0.00
vt 0.146345 0.761561 0.00
vt 0.156485 0.747113 0.00
vt 0.738951 0.771106 0.00
vt 0.749687 0.754860 0.00
vt 0.720967 0.757866 0.00
vt 0.731672 0.741342 0.00
vt 0.698422 0.739437 0.00
vt 0.709834 0.722035 0.00
vt 0.669124 0.710225 0.00
vt 0.680371 0.693163 0.00
vt 0.130915 0.739737 0.00
vt 0.128105 0.758360 0.00
vt 0.181547 0.788764 0.00
vt 0.165061 0.789086 0.00
vt 0.185626 0.807497 0.00
vt 0.169247 0.810521 0.00
vt 0.189635 0.828414 0.00
vt 0.171165 0.830526 0.00
vt 0.172320 0.850026 0.00
vt 0.189635 0.847367 0.00
vt 0.018853 0.755033 0.00
vt 0.905151 0.850870 0.00
vt 0.881588 0.850235 0.00
vt 0.877061 0.756956 0.00
vt 0.908192 0.756302 0.00
vt 0.478139 0.304493 0.00
vt 0.021211 0.851340 0.00
vt 0.000000 0.847737 0.00
vt 0.486085 0.656797 0.00
vt 0.486436 0.629130 0.00
vt 0.548766 0.592777 0.00
vt 0.551278 0.692169 0.00
vt 0.303342 0.032988 0.00
vt 0.301635 0.070636 0.00
vt 0.239689 0.096332 0.00
vt 0.238947 0.000432 0.00
vt 0.269188 0.890458 0.00
vt 0.269055 0.918102 0.00
vt 0.213100 0.953178 0.00
vt 0.213100 0.853691 0.00
vt 0.003496 0.074890 0.00
vt 0.000000 0.037346 0.00
vt 0.065346 0.002257 0.00
vt 0.065959 0.096332 0.00
vt 0.169662 0.095939 0.00
vt 0.135105 0.094075 0.00
vt 0.134493 0.000000 0.00
vt 0.168920 0.000038 0.00
vt 0.062602 0.853691 0.00
vt 0.062602 0.953178 0.00
vt 0.002103 0.919619 0.00
vt 0.000000 0.885076 0.00
vt 0.611555 0.623786 0.00
vt 0.611555 0.658213 0.00

# 86 Faces
f  79/1/1  80/2/2  12/3/3  9/4/4 
f  78/5/5  79/6/6  9/7/7  10/8/8 
f  10/9/9  11/10/10  77/11/11  78/12/12 
f  11/10/13  12/13/14  80/14/15  77/11/16 
f  1/15/17  6/16/18  5/17/19  3/18/20 
f  7/19/21  6/20/22  1/21/23  2/22/24 
f  8/23/25  7/24/26  2/25/27  4/26/28 
f  4/26/29  3/18/30  5/17/31  8/23/32 
f  8/27/33  5/28/34  11/29/35  10/30/36 
f  9/31/37  12/32/38  6/33/39  7/34/40 
f  11/29/41  13/35/42  14/36/43  12/37/44 
f  5/38/45  6/39/46  16/40/47  15/41/48 
f  6/42/49  12/43/50  14/44/51  16/45/52 
f  11/29/53  5/28/54  15/46/55  13/35/56 
f  14/47/57  13/48/58  15/49/59  16/50/60 
f  21/51/61  73/52/62  17/53/63  18/54/64 
f  73/55/65  74/56/66  19/57/67  17/58/68 
f  10/30/69  9/59/70  23/60/71  24/61/72 
f  74/62/73  22/63/74  20/64/75  19/65/76 
f  17/66/77  19/67/78  20/68/79  18/69/80 
f  22/70/81  21/71/82  18/72/83  20/73/84 
f  24/61/85  23/60/86  25/74/87  26/75/88 
f  26/75/89  25/74/90  27/76/91  28/77/92 
f  28/77/93  27/76/94  29/78/95  30/79/96 
f  30/79/97  29/78/98  31/80/99  32/81/100 
f  32/81/101  31/80/102  33/82/103  34/83/104 
f  34/83/105  33/82/106  35/84/107  36/85/108 
f  36/85/109  35/84/110  37/86/111  38/87/112 
f  38/87/113  37/86/114  39/88/115  40/89/116 
f  40/89/117  39/88/118  41/90/119  42/91/120 
f  21/71/121  22/70/122  44/92/123  43/93/124 
f  43/93/125  44/92/126  46/94/127  45/95/128 
f  48/96/129  47/97/130  45/95/131  46/94/132 
f  47/97/133  48/96/134  50/98/135  49/99/136 
f  49/99/137  50/98/138  52/100/139  51/101/140 
f  51/101/141  52/100/142  54/102/143  53/103/144 
f  53/103/145  54/102/146  56/104/147  55/105/148 
f  55/105/149  56/104/150  58/106/151  57/107/152 
f  57/107/153  58/106/154  60/108/155  59/109/156 
f  42/110/157  41/111/158  59/112/159  60/113/160 
f  45/114/161  27/115/162  25/116/163  43/117/164 
f  40/118/165  42/110/166  60/113/167  58/119/168 
f  38/120/169  40/118/170  58/119/171  56/121/172 
f  36/122/173  38/120/174  56/121/175  54/123/176 
f  34/124/177  36/122/178  54/123/179  52/125/180 
f  52/125/181  50/126/182  32/127/183  34/124/184 
f  1/128/185  3/129/186  62/130/187  61/131/188 
f  4/132/189  2/133/190  64/134/191  63/135/192 
f  2/136/193  1/137/194  61/138/195  64/139/196 
f  3/140/197  4/141/198  63/142/199  62/143/200 
f  63/144/201  64/145/202  66/146/203  65/147/204 
f  62/148/205  63/149/206  65/150/207  67/151/208 
f  61/152/209  62/153/210  67/154/211  68/155/212 
f  64/156/213  61/157/214  68/158/215  66/159/216 
f  65/160/217  66/161/218  70/162/219  69/163/220 
f  68/164/221  67/165/222  72/166/223  71/167/224 
f  69/168/225  70/169/226  71/170/227  72/171/228 
f  67/165/229  65/160/230  69/163/231  72/166/232 
f  70/172/233  66/173/234  68/174/235  71/175/236 
f  43/117/237  25/116/238  23/176/239  21/51/240 
f  51/177/241  33/178/242  31/179/243  49/180/244 
f  32/127/245  50/126/246  48/181/247  30/182/248 
f  30/182/249  48/181/250  46/183/251  28/184/252 
f  28/184/253  46/183/254  44/185/255  26/186/256 
f  26/186/257  44/185/258  22/187/259  24/188/260 
f  47/189/261  29/190/262  27/115/263  45/114/264 
f  49/180/265  31/179/266  29/190/267  47/189/268 
f  53/191/269  35/192/270  33/178/271  51/177/272 
f  55/193/273  37/194/274  35/192/275  53/191/276 
f  57/195/277  39/196/278  37/194/279  55/193/280 
f  41/197/281  39/196/282  57/195/283  59/198/284 
f  23/176/285  76/199/286  73/52/287  21/51/288 
f  7/200/289  8/201/290  75/202/291  76/203/292 
f  8/27/293  10/30/294  24/61/295  75/204/296 
f  75/204/297  24/61/298  22/63/299  74/62/300 
f  76/203/301  75/202/302  74/56/303  73/55/304 
f  9/205/305  7/206/306  76/199/307  23/176/308 
f  77/207/309  80/208/310  81/209/311  82/210/312 
f  80/211/313  79/212/314  83/213/315  81/214/316 
f  79/215/317  78/216/318  84/217/319  83/218/320 
f  78/219/321  77/220/322  82/221/323  84/222/324 
f  86/223/325  85/224/326  87/225/327  88/226/328 
f  83/227/329  84/228/330  85/229/331  86/230/332 
f  84/222/333  82/221/334  87/225/335  85/224/336 
f  82/210/337  81/209/338  88/231/339  87/232/340 
f  81/214/341  83/213/342  86/223/343  88/226/344 
